# xmcd
#
# Track frame offsets: 
#        150
#        25905
#        46458
#        64748
#        79968
#        97818
#        120275
#        137372
#        155217
#        173427
#        190169
#        208311
#        233716
#        252671
#        277396
#        294773
#        316570
#
# Disc length: 4420 seconds
#
# Revision: 0
# Processed by: cddbd v1.5.2PL0 Copyright (c) Steve Scherf et al.
# Submitted via: ExactAudioCopy v0.99pb4
#
DISCID=ea114211
DTITLE=Various Artist - Billboard 1983
DYEAR=2000
DGENRE=Other
TTITLE0=Air Supply - Making Love Out of Nothing at All
TTITLE1=Men Without Hats - The Safety Dance
TTITLE2=Bryan Adams - Heaven
TTITLE3=Kim Wilde - Chequered Love
TTITLE4=Cyndi Lauper - Girls Just Want to Have Fun
TTITLE5=Toto - Africa
TTITLE6=Greg Kihn Band - Jeopardy
TTITLE7=David Bowie - Modern Love
TTITLE8=Culture Club - Karma Chameleon
TTITLE9=The Clash - Rock the Casbah
TTITLE10=Talking Heads - Burning Down the House
TTITLE11=Spandau Ballet - True
TTITLE12=The Police - Every Breath You Take
TTITLE13=Styx - Mr. Roboto
TTITLE14=Nena - 99 Luftballons
TTITLE15=Quiet Riot - Cum on Feel the Noize
TTITLE16=Kajagoogoo - Too Shy
EXTD=
EXTT0=
EXTT1=
EXTT2=
EXTT3=
EXTT4=
EXTT5=
EXTT6=
EXTT7=
EXTT8=
EXTT9=
EXTT10=
EXTT11=
EXTT12=
EXTT13=
EXTT14=
EXTT15=
EXTT16=
PLAYORDER=
